#N canvas 20 50 865 713 12;
#X obj 68 69 openpanel;
#X obj 68 43 bng 15 250 50 0 empty empty empty 17 7 0 10 -262144 -1
-1;
#X msg 68 92 read -resize \$1 soundfile;
#X obj 68 121 soundfiler;
#N canvas 0 22 450 278 (subpatch) 0;
#X array soundfile 44100 float 2;
#X coords 0 1 44100 -1 200 140 1;
#X restore 65 160 graph;
#X obj 322 71 openpanel;
#X obj 322 45 bng 15 250 50 0 empty empty empty 17 7 0 10 -262144 -1
-1;
#X obj 322 123 soundfiler;
#N canvas 0 22 450 278 (subpatch) 0;
#X array irfile 125869 float 2;
#X coords 0 1 125869 -1 200 140 1 0 0;
#X restore 319 162 graph;
#X msg 322 95 read -resize \$1 irfile;
#X obj 225 472 tabplay~ irfile;
#X obj 76 428 bng 15 250 50 0 empty empty empty 17 7 0 10 -262144 -1
-1;
#X obj 76 472 tabplay~ soundfile;
#X obj 73 598 dac~;
#X obj 75 530 conv~;
#X connect 0 0 2 0;
#X connect 1 0 0 0;
#X connect 2 0 3 0;
#X connect 5 0 9 0;
#X connect 6 0 5 0;
#X connect 9 0 7 0;
#X connect 10 0 14 1;
#X connect 11 0 12 0;
#X connect 11 0 10 0;
#X connect 12 0 14 0;
#X connect 14 0 13 0;
#X connect 14 0 13 1;
